<svg width="18" height="22" viewBox="0 0 18 22" fill="none" xmlns="http://www.w3.org/2000/svg">
<circle cx="9" cy="9" r="8.5" stroke="white"/>
<path d="M9.58398 14H8.40967V7.13184H9.58398V14ZM8.31445 5.31006C8.31445 5.11963 8.37158 4.95882 8.48584 4.82764C8.60433 4.69645 8.77783 4.63086 9.00635 4.63086C9.23486 4.63086 9.40837 4.69645 9.52686 4.82764C9.64535 4.95882 9.70459 5.11963 9.70459 5.31006C9.70459 5.50049 9.64535 5.65918 9.52686 5.78613C9.40837 5.91309 9.23486 5.97656 9.00635 5.97656C8.77783 5.97656 8.60433 5.91309 8.48584 5.78613C8.37158 5.65918 8.31445 5.50049 8.31445 5.31006Z" fill="black"/>
</svg>
